[06:53:21] gtkgui: HandBrake 1.3.1 (2020072600) - Linux x86_64 - https://handbrake.fr
[06:53:21] hb_init: starting libhb thread
[06:53:21] hb_init: starting libhb thread
[06:53:21] hb_init: starting libhb thread
[06:53:22] CPU: Intel(R) Core(TM) i7-2600 CPU @ 3.40GHz
[06:53:22]  - Intel microarchitecture Sandy Bridge
[06:53:22]  - logical processor count: 8
[06:53:22] hb_scan: path=/home/drew/Music/Unknown/Unknown/00_Summit.mkv, title_index=0
udfread ERROR: ECMA 167 Volume Recognition failed
disc.c:323: failed opening UDF image /home/drew/Music/Unknown/Unknown/00_Summit.mkv
disc.c:424: error opening file BDMV/index.bdmv
disc.c:424: error opening file BDMV/BACKUP/index.bdmv
bluray.c:2602: nav_get_title_list(/home/drew/Music/Unknown/Unknown/00_Summit.mkv/) failed
[06:53:22] bd: not a bd - trying as a stream/file instead
libdvdread: DVDOpenFileUDF:UDFFindFile /VIDEO_TS/VIDEO_TS.IFO failed
libdvdnav: vm: vm: failed to read VIDEO_TS.IFO
[06:53:22] dvd: not a dvd - trying as a stream/file instead
Input #0, matroska,webm, from '/home/drew/Music/Unknown/Unknown/00_Summit.mkv':
  Metadata:
    encoder         : libebml v1.2.3 + libmatroska v1.3.0
    creation_time   : 2013-01-17T15:05:44.000000Z
  Duration: 00:06:14.14, start: 0.000000, bitrate: 5647 kb/s
    Stream #0:0(eng): Audio: pcm_s16le, 48000 Hz, 2 channels, s16, 1536 kb/s (default)
    Metadata:
      title           : Summit
    Stream #0:1: Video: h264 (High), yuv420p(progressive), 1920x1080, SAR 1:1 DAR 16:9, 25 fps, 25 tbr, 1k tbn, 50 tbc (default)
[06:53:22] scan: decoding previews for title 1
[06:53:22] scan: audio 0x0: pcm_s16le, rate=48000Hz, bitrate=1536000 English (pcm_s16le) (2.0 ch) (1536 kbps)
[06:53:23] scan: 10 previews, 1920x1080, 25.000 fps, autocrop = 0/0/0/0, aspect 16:9, PAR 1:1
[06:53:23] libhb: scan thread found 1 valid title(s)
